<?xml version="1.0" encoding="UTF-8"?>
<svg width="603px" height="367px" viewBox="0 0 603 367" version="1.1" xmlns="http://www.w3.org/2000/svg" xmlns:xlink="http://www.w3.org/1999/xlink" style="background: #FFFFFF;">
    <title>playstore</title>
    <defs>
        <path d="M0,0 L1024,0 L1024,500 L0,500 L0,0 Z" id="path-1"></path>
    </defs>
    <g id="Symbols" stroke="none" stroke-width="1" fill="none" fill-rule="evenodd">
        <g id="playstore" transform="translate(-206, -57)" xlink:href="#path-1">
            <use fill="#FFFFFF" xlink:href="#path-1"></use>
            <g id="BBM_Logo_neutral_RGB_weiss" stroke-width="1" transform="translate(256, 65)">
                <g id="Group" fill-rule="nonzero">
                    <g transform="translate(0.5449, 43.4599)" fill="#030203">
                        <path d="M44.5765214,0 C54.8267376,0 61.1948121,1.1266109 66.3028932,4.74542166 C72.1601596,8.87632828 75.6677087,16.0115306 75.6677087,23.2832919 C75.6677087,29.1553244 74.1693382,33.1838119 71.5471899,37.6902555 C69.8104423,40.6945512 67.9374792,43.562288 66.4391087,45.8155098 C69.1974726,47.9321727 71.5471899,49.9464165 73.7947456,52.9507122 C76.1785168,56.0915668 77.7790489,61.0759665 77.7790489,66.470043 C77.7790489,75.3463712 74.7823079,82.7546914 68.550449,87.6366719 C62.6931826,92.2796744 54.6905221,94.3963373 41.3073495,94.3963373 L0,94.3963373 L0,0 L44.5765214,0 Z M51.2170269,38.2023513 C52.1024277,36.8367624 53.3283671,34.8225187 54.2137679,33.3203708 C55.5759228,30.9305901 56.8359162,28.6773683 56.8359162,25.5706534 C56.8359162,22.4297988 55.8483538,19.9375989 53.4645826,18.6744291 C51.3532424,17.5478182 47.9819089,17.3088402 42.4651812,17.3088402 L18.7296309,17.3088402 L18.7296309,38.2023513 L51.2170269,38.2023513 L51.2170269,38.2023513 Z M18.7296309,77.1557766 L41.715996,77.1557766 C49.582441,77.1557766 53.1921516,76.5412616 55.8483538,74.2880398 C58.0959095,72.2737961 58.8450948,69.9181551 58.8450948,66.5383224 C58.8450948,62.4074158 57.4829398,59.4031201 53.9753908,57.3888763 C51.2170269,55.8867285 47.6073163,55.5111915 41.2392418,55.5111915 L18.7636847,55.5111915 L18.7636847,77.1557766 L18.7296309,77.1557766 Z" id="Shape"></path>
                        <polygon id="Path" points="92.0476222 0 116.157765 0 139.280346 52.9507122 162.368873 0 186.104423 0 186.104423 94.3963373 167.851546 94.3963373 167.851546 28.4383902 147.248952 75.6536288 130.869039 75.6536288 110.300499 28.4383902 110.300499 94.4304771 92.0476222 94.4304771"></polygon>
                        <polygon id="Path" points="215.833455 0 229.557167 69.7474565 245.051679 14.2704047 264.019687 14.2704047 279.275823 69.7474565 293.271965 0 312.137812 0 293.033588 94.3963373 269.298038 94.3963373 254.416495 40.4214334 239.569006 94.3963373 215.595078 94.3963373 196.62707 0"></polygon>
                    </g>
                    <g transform="translate(328.1431, 0)" fill="#0066B1">
                        <path d="M77.0979714,33.3545105 C77.200133,32.3985982 77.5747256,31.0330093 77.5747256,31.0330093 L78.9368806,31.1012887 C78.9368806,31.1012887 79.924443,33.1496722 80.0266046,33.8666064 C80.0947123,34.2762831 79.7882275,35.3687542 79.5839042,36.1198282 L77.0639175,36.1198282 C77.0298637,35.3004748 77.0298637,34.0031653 77.0979714,33.3545105 M81.1163286,31.9206421 C80.9120053,30.6574723 81.6271367,29.2918833 81.6271367,29.2918833 C81.6271367,29.2918833 82.4103758,30.8964504 82.4103758,31.5451051 C82.4103758,32.1937599 83.0573994,34.5494009 83.0573994,35.0956364 C83.0573994,35.3346145 83.0573994,35.7442912 83.0573994,36.1881076 L80.9460592,36.1881076 C81.2184902,34.037305 81.2865979,33.1155324 81.1163286,31.9206421 M85.6454938,31.681664 C86.2244097,31.681664 86.7352178,31.9889215 86.8714333,33.1838119 C86.9054872,33.5934886 87.2460259,34.412842 87.3822414,35.027357 C87.4844031,35.4370337 87.5184569,35.8125707 87.5865647,36.1539679 L84.3514466,36.1539679 C84.3514466,34.9932173 84.3173928,33.2862311 84.249285,32.7399955 C84.1471234,31.8523626 85.0325241,31.681664 85.6454938,31.681664 M89.5616894,31.2378476 L89.6979049,31.2378476 C89.6297971,31.7499435 89.5616894,32.2961791 89.5616894,32.8765544 C89.5616894,34.1397242 89.7660126,35.2663351 90.1065514,36.1539679 L89.118989,36.1539679 C88.7443964,35.027357 88.1995344,32.9789735 88.1995344,32.4668777 C88.1995344,31.8523626 89.5616894,31.2378476 89.5616894,31.2378476 M96.168141,31.2378476 C96.0659794,31.8182229 96.0319255,32.3985982 96.0319255,33.047253 C96.0319255,34.2421433 96.2021949,35.3004748 96.5086797,36.1539679 L93.4778849,36.1539679 C93.8184237,35.2663351 94.0227469,34.1397242 94.0227469,32.8765544 C94.0227469,32.2961791 93.988693,31.7499435 93.8865314,31.2378476 L96.168141,31.2378476 Z M102.638377,31.2037079 C102.536215,31.7840832 102.502162,32.3985982 102.502162,33.047253 C102.502162,34.2421433 102.672431,35.3004748 102.978916,36.1539679 L99.9821749,36.1539679 C100.28866,35.3004748 100.458929,34.2080036 100.458929,33.047253 C100.458929,32.3985982 100.390821,31.7840832 100.322714,31.2378476 L102.638377,31.2037079 Z M108.563751,32.5692969 L109.040505,34.4811214 L109.040505,36.1539679 L107.508081,36.1539679 L108.563751,32.5692969 Z M183.652544,61.0418268 L177.556901,61.0418268 L177.556901,57.9351119 L173.470436,57.9351119 L173.470436,49.7074384 L177.556901,49.7074384 L177.556901,43.0160525 L115.749119,43.0160525 L115.749119,36.1881076 L110.641038,36.1881076 C110.504822,35.4711734 110.266445,34.412842 110.232391,34.0031653 C110.130229,33.3545105 110.709145,32.1254804 110.879415,31.5792449 C111.083738,31.0330093 112.173462,30.3843545 112.173462,30.3843545 C112.173462,30.3843545 112.990755,31.3744065 112.68427,32.1596202 C112.377785,32.9448338 111.526438,33.5593489 111.526438,33.5593489 C111.526438,33.5593489 111.935085,34.5835406 112.514001,34.5835406 C112.820486,34.5835406 113.876156,33.2520913 114.216694,32.0913407 C114.523179,31.067149 114.148587,30.4867737 113.433455,29.6674203 C114.012371,28.47253 114.012371,27.7897355 113.705886,26.9703821 C113.399401,26.1851684 113.024809,25.3658151 113.12697,24.4099028 C113.229132,23.4539905 113.058863,22.7029166 113.331294,22.9760344 C114.012371,23.6929686 115.885334,22.6687768 115.306418,21.542166 C114.489125,20.0058784 114.829664,19.4937825 114.421018,18.7427086 C113.944263,17.8550757 113.229132,16.8991635 111.764815,18.0257744 C110.300499,19.1523853 110.300499,19.6986208 109.585367,21.3031879 C108.90429,22.9077549 109.108613,23.3857111 108.223213,24.0343658 C106.758896,23.9319466 105.158364,23.9319466 105.158364,23.9319466 C105.158364,23.9319466 103.966478,23.0784535 103.625939,22.8053357 C102.4,21.8494235 102.161623,19.8693195 102.161623,19.8693195 C102.161623,19.8693195 102.944862,16.830884 102.740539,14.9190595 C102.604323,13.4510513 102.570269,12.870676 102.025407,12.1537418 C101.140007,10.9588515 99.8459594,12.2903007 99.7778517,13.0072349 C99.6756901,13.7241691 99.7778517,12.870676 99.4713668,13.3486322 C99.1648819,13.8265883 98.1432657,14.85078 98.1432657,14.85078 L97.8708347,13.5876102 C97.8708347,13.5876102 99.4713668,13.1096541 98.3135351,11.880624 C97.530296,11.0954104 95.9978716,11.5733665 95.7254406,11.9147637 C95.078417,12.7682568 95.350848,12.7682568 95.9978716,13.4169116 C96.2021949,14.0314266 95.8616561,14.85078 95.8616561,14.85078 L94.261124,13.5534705 L94.261124,13.3486322 C94.6697705,13.2120733 95.6573329,12.8365363 94.7719322,12.5975582 C94.5676089,12.5292788 94.3973395,12.495139 94.1930163,12.495139 L94.0908547,10.6174542 C95.4189558,10.3784761 96.440572,9.42256387 96.440572,8.26181325 C96.440572,7.23762152 95.6573329,6.38412842 94.5676089,6.04273118 C94.6016628,5.97445173 94.6016628,5.90617228 94.5676089,5.83789283 C94.3632857,5.35993669 93.1714001,4.88198056 93.1714001,4.71128194 C93.1714001,4.57472304 94.6357167,5.01853945 95.2486864,4.47230387 C95.8616561,3.92606828 97.0194879,0 97.0194879,0 C97.0194879,0 93.6822082,1.50214786 93.7843698,1.74112593 C93.8865314,1.980104 93.988693,3.03843545 93.4097772,3.34569297 C92.8308613,3.65295049 93.2054539,1.50214786 92.8308613,1.43386842 C92.4222148,1.36558897 91.6389757,1.74112593 91.6389757,1.74112593 L92.11573,2.52633959 C92.11573,2.52633959 92.0135683,3.65295049 91.6389757,3.65295049 C91.4346525,3.65295049 90.6514134,1.87768483 90.6514134,1.87768483 L87.3141337,0.512095863 C87.3141337,0.512095863 88.6081809,3.48225187 89.2892584,4.13090662 C89.9703359,4.74542166 91.7411373,4.67714221 91.7411373,4.67714221 L91.8092451,6.28170925 C91.0600599,6.72552566 90.5492517,7.44245987 90.5492517,8.26181325 C90.5492517,9.49084332 91.6730296,10.4808953 93.1373462,10.6174542 L93.4097772,12.3927199 C92.8989691,12.4268596 92.4222148,12.5975582 92.2178916,12.9730952 C91.8092451,13.6900294 91.3665447,14.5776622 91.6730296,15.7042731 C91.9795145,16.830884 93.0011307,19.3572236 92.8989691,20.0058784 C92.7968074,20.6203934 92.2178916,21.7128646 91.2303292,23.0784535 C90.2427669,24.4440425 89.5276355,24.136785 89.5276355,24.7854397 C89.5276355,25.4340945 89.936282,25.2633959 88.7443964,25.0244178 C87.5525108,24.7854397 86.2925175,24.8537192 86.2925175,24.8537192 C86.2925175,24.8537192 85.5092784,23.4881302 85.7136016,22.532218 C85.9179248,21.5763057 86.0881942,21.4056071 85.9179248,20.5521139 C85.7136016,19.6644811 85.5433322,19.6986208 85.2368474,19.3572236 C84.8622547,18.9475469 84.0449618,18.4013113 82.9892917,19.186525 C82.6828068,19.3913633 82.3082142,20.2107167 82.3082142,20.9276509 C82.3082142,21.6445851 82.88713,22.1908207 82.7849684,22.8394755 C82.6828068,23.4881302 82.5806452,23.8636672 82.4103758,24.3757631 C82.2060525,24.8537192 81.6271367,26.1510287 81.6271367,26.1510287 C81.6271367,26.1510287 81.0482208,25.126837 79.9584968,24.8537192 C78.8687729,24.6147411 77.7109411,25.3999548 76.3147323,24.5464617 C74.9185234,23.6588288 75.3271699,22.6004974 74.7482541,21.3373276 C73.7606917,19.186525 72.330429,19.3572236 72.0920519,19.3572236 C71.2066511,19.3572236 70.3553043,20.2107167 70.3212504,20.9617906 C70.2190888,22.5663577 68.8569338,24.8878589 70.5255737,25.126837 C71.4109744,25.2633959 72.0920519,24.7171603 72.0920519,24.7171603 C72.0920519,24.7171603 71.8536748,26.0144698 71.6152976,26.4582862 C71.4109744,26.8338232 71.1385434,27.2776396 71.240705,27.8580149 C71.3428666,28.4042505 71.785567,29.1894642 71.785567,29.4284422 C71.785567,29.6674203 69.7763884,30.3502148 69.8444962,31.5109654 C69.9126039,32.5692969 70.695843,34.6859598 71.2066511,34.8566584 C71.6834054,34.9932173 72.3644829,34.2080036 72.3644829,34.2080036 C72.3644829,34.2080036 71.6493515,33.1496722 71.3769205,32.0230613 C71.0704357,30.8964504 72.5347522,30.4184942 72.5347522,30.4184942 C72.5347522,30.4184942 72.9774526,30.3502148 74.0671766,30.5209134 C75.1569006,30.691612 76.110409,30.8281709 76.110409,30.8281709 C76.110409,30.8281709 76.2125707,34.2762831 76.0082474,34.8225187 C75.9060858,35.0956364 75.8039242,35.641872 75.7017626,36.0856884 L67.9034253,36.0856884 L67.9034253,42.9136333 L6.06158962,42.9136333 L6.06158962,49.6050192 L10.1480545,49.6050192 L10.1480545,57.8326927 L6.06158962,57.8326927 L6.06158962,60.9394076 L0,60.9394076 L0,67.5966539 L6.06158962,67.5966539 L6.06158962,71.3178838 L6.06158962,78.9310423 L10.0458929,78.9310423 L10.0458929,143.796518 L27.8220153,143.796518 L27.8220153,78.9310423 L37.8338543,78.9310423 L37.8338543,143.796518 L55.6099767,143.796518 L55.6099767,78.9310423 L65.6218158,78.9310423 L65.6218158,143.796518 L83.3979381,143.796518 L83.3979381,78.9310423 L100.595145,78.9310423 L100.595145,143.796518 L118.371267,143.796518 L118.371267,78.9310423 L128.383106,78.9310423 L128.383106,143.796518 L146.159228,143.796518 L146.159228,78.9310423 L156.171068,78.9310423 L156.171068,143.796518 L173.94719,143.796518 L173.94719,78.9310423 L177.761224,78.9310423 L177.761224,71.3178838 L177.761224,67.5966539 L183.856867,67.5966539 L183.856867,61.0418268 L183.652544,61.0418268 Z" id="Shape"></path>
                        <rect id="Rectangle" x="65.3493848" y="163.35858" width="108.393482" height="6.62310649"></rect>
                        <rect id="Rectangle" x="37.6976388" y="182.271987" width="136.079282" height="9.45670359"></rect>
                        <rect id="Rectangle" x="10.2161623" y="202.585123" width="163.560758" height="15.1580375"></rect>
                    </g>
                    <g transform="translate(0.0341, 155.643)" fill="#0066B1">
                        <path d="M29.252278,0 C35.9608913,0 40.1495178,0.751073932 43.5208513,3.1067149 C47.3689391,5.80375311 49.6846026,10.515035 49.6846026,15.2604567 C49.6846026,19.1182455 48.6970402,21.7470043 46.9943465,24.7171603 C45.8365148,26.6972643 44.6105753,28.5749491 43.623013,30.0429573 C45.4278683,31.442686 46.9943465,32.7399955 48.4586631,34.7200995 C50.0251413,36.7684829 51.0808114,40.0458965 51.0808114,43.5964278 C51.0808114,49.4343206 49.1056867,54.2821614 45.0192218,57.4912955 C41.171134,60.529731 35.9268374,61.9294596 27.1409378,61.9294596 L0,61.9294596 L0,0 L29.252278,0 Z M33.5771201,25.0585575 C34.1560359,24.1709247 34.9733289,22.8394755 35.5522448,21.8494235 C36.4376455,20.2789962 37.2549385,18.810988 37.2549385,16.7626046 C37.2549385,14.7142211 36.6079149,13.0755144 35.0414366,12.256161 C33.6452278,11.505087 31.431726,11.3685281 27.8220153,11.3685281 L12.2593947,11.3685281 L12.2593947,25.0926973 L33.5771201,25.0926973 L33.5771201,25.0585575 Z M12.2593947,50.6292109 L27.3452611,50.6292109 C32.52145,50.6292109 34.8711673,50.2195343 36.6079149,48.7515261 C38.0722315,47.4200769 38.5830396,45.8837893 38.5830396,43.6647072 C38.5830396,40.967669 37.6976388,38.987565 35.3819754,37.6561158 C33.5771201,36.6660638 31.1933489,36.4270857 27.0387762,36.4270857 L12.2934486,36.4270857 L12.2934486,50.6292109 L12.2593947,50.6292109 Z" id="Shape"></path>
                        <polygon id="Path" points="63.4423678 0 107.201596 0 107.201596 11.5733665 75.7358164 11.5733665 75.7358164 24.6488809 105.396741 24.6488809 105.396741 36.2222473 75.7358164 36.2222473 75.7358164 50.3560931 108.597805 50.3560931 108.597805 61.9294596 63.4423678 61.9294596"></polygon>
                        <path d="M120.312338,0 L147.759761,0 C155.455936,0 160.223479,0.81935338 164.548321,4.50644359 C168.158031,7.61315849 170.269371,12.8023966 170.269371,18.4695908 C170.269371,24.136785 168.464516,27.9262944 164.956967,32.1254804 C163.084004,34.3445625 160.359694,37.2122993 158.895377,38.7144472 L173.33422,61.9635994 L159.167808,61.9635994 L146.057067,40.6945512 L132.605786,40.6945512 L132.605786,61.9635994 L120.312338,61.9635994 L120.312338,0 L120.312338,0 Z M132.605786,11.6075062 L132.605786,29.1211847 L151.948387,29.1211847 C152.697572,28.3018313 154.093781,26.731404 154.979182,25.6047931 C156.715929,23.4539905 157.839707,21.5763057 157.839707,18.5378702 C157.839707,16.1480895 157.260791,14.5093828 155.558098,13.2120733 C153.99162,12.0513226 151.471633,11.6416459 146.295444,11.6416459 L132.605786,11.6416459 L132.605786,11.6075062 Z" id="Shape"></path>
                        <polygon id="Path" points="182.937413 61.9635994 182.937413 0 195.230861 0 195.230861 50.0488356 225.640971 50.0488356 225.640971 61.9635994"></polygon>
                        <polygon id="Path" points="235.823079 61.9635994 235.823079 0 248.116528 0 248.116528 61.9635994"></polygon>
                        <polygon id="Path" points="262.929963 0 276.210974 0 300.865979 41.4114854 300.865979 0 312.989159 0 312.989159 61.9635994 299.708148 61.9635994 275.053143 20.5521139 275.053143 61.9635994 262.929963 61.9635994"></polygon>
                    </g>
                    <g transform="translate(0, 237.2369)" fill="#030203">
                        <polygon id="Path" points="0 1.39972869 15.8009977 1.39972869 30.9549717 36.1539679 46.1089458 1.39972869 61.6715663 1.39972869 61.6715663 63.3633281 49.7186565 63.3633281 49.7186565 20.0400181 36.1992684 51.0047479 25.472298 51.0047479 11.9529099 20.0400181 11.9529099 63.3291883 4.8393466e-14 63.3291883 4.8393466e-14 1.39972869"></polygon>
                        <path d="M93.7162621,1.39972869 L109.789691,1.39972869 L132.333356,63.3633281 L118.984237,63.3633281 L114.897772,52.0972191 L88.3698038,52.0972191 L84.3514466,63.3633281 L71.240705,63.3633281 L93.7162621,1.39972869 Z M92.1497838,40.4897129 L110.913469,40.4897129 L101.480545,13.7924486 L92.1497838,40.4897129 Z" id="Shape"></path>
                        <path d="M141.834386,1.39972869 L169.281809,1.39972869 C176.977985,1.39972869 181.745527,2.21908207 186.070369,5.90617228 C189.68008,9.01288718 191.79142,14.2021253 191.79142,19.8693195 C191.79142,25.5365137 189.986565,29.3260231 186.479016,33.5252091 C184.606053,35.7442912 181.881743,38.612028 180.417426,40.1141759 L194.856269,63.3633281 L180.655803,63.3633281 L167.545062,42.0942799 L154.093781,42.0942799 L154.093781,63.3633281 L141.834386,63.3633281 L141.834386,1.39972869 Z M154.127835,12.9730952 L154.127835,30.4867737 L173.470436,30.4867737 C174.219621,29.6674203 175.61583,28.096993 176.50123,26.9703821 C178.237978,24.8195795 179.361756,22.9418946 179.361756,19.9034592 C179.361756,17.5136785 178.78284,15.8749717 177.080146,14.5776622 C175.513668,13.4169116 172.993681,13.0072349 167.817493,13.0072349 L154.127835,13.0072349 L154.127835,12.9730952 Z" id="Shape"></path>
                        <path d="M221.58856,1.39972869 L237.661989,1.39972869 L260.205653,63.3633281 L246.856535,63.3633281 L242.77007,52.0972191 L216.31021,52.0972191 L212.291852,63.3633281 L199.181111,63.3633281 L221.58856,1.39972869 Z M220.022082,40.4897129 L238.785767,40.4897129 L229.352843,13.7924486 L220.022082,40.4897129 Z" id="Shape"></path>
                        <polygon id="Path" points="257.242966 13.1437938 257.242966 1.39972869 311.014034 1.39972869 311.014034 13.1437938 290.275224 13.1437938 290.275224 63.3291883 277.981776 63.3291883 277.981776 13.1437938"></polygon>
                        <polygon id="Path" points="321.162088 63.3291883 321.162088 1.39972869 333.455537 1.39972869 333.455537 25.0585575 358.212704 25.0585575 358.212704 1.39972869 370.506152 1.39972869 370.506152 63.3633281 358.212704 63.3633281 358.212704 36.8367624 333.455537 36.8367624 333.455537 63.3633281 321.162088 63.3633281"></polygon>
                        <path d="M383.719056,32.5351571 C383.719056,23.8295275 384.774726,16.1139498 388.214167,10.515035 C392.300632,3.85778883 397.817359,0 410.996209,0 C422.404257,0 428.125308,3.1067149 432.620419,9.35428442 C436.877153,15.1921773 438.273362,23.4881302 438.273362,32.5351571 C438.273362,42.9819127 436.23013,50.5267918 432.552311,55.5453312 C428.0572,61.6904816 422.540472,64.7630567 410.996209,64.7630567 C397.953575,64.7630567 392.81144,61.3149446 388.690921,55.2380737 C385.353642,50.1853945 383.719056,42.8112141 383.719056,32.5351571 Z M396.182774,32.5351571 C396.182774,38.9534253 396.761689,44.6888989 398.975191,48.2394303 C401.529232,52.2679177 405.785966,53.0872711 411.030263,53.0872711 C415.695643,53.0872711 419.373462,52.2679177 422.097772,48.888085 C425.196674,45.0302962 425.877752,39.1241239 425.877752,32.5351571 C425.877752,26.2193082 425.230728,20.8593715 422.915065,17.1040018 C420.361024,12.9048157 416.274559,11.6757857 411.030263,11.6757857 C405.956235,11.6757857 401.59734,12.4268596 398.975191,16.6943251 C396.727636,20.2789962 396.182774,26.116889 396.182774,32.5351571 Z" id="Shape"></path>
                        <polygon id="Path" points="451.486265 1.39972869 464.767276 1.39972869 489.422281 42.8112141 489.422281 1.39972869 501.545461 1.39972869 501.545461 63.3633281 488.26445 63.3633281 463.609445 21.9518426 463.609445 63.3633281 451.486265 63.3633281"></polygon>
                    </g>
                </g>
            </g>
        </g>
    </g>
</svg>